<svg width="163" height="78" viewBox="0 0 163 78" fill="none" xmlns="http://www.w3.org/2000/svg">
<path d="M98.8367 29.7989C96.6271 29.7989 94.9162 30.617 93.7041 32.2531C92.492 33.8769 91.8859 36.1452 91.8859 39.0581C91.8859 45.1193 94.2029 48.1499 98.8367 48.1499C100.781 48.1499 103.136 47.6727 105.901 46.7183V51.5524C103.628 52.482 101.091 52.9468 98.2875 52.9468C94.2597 52.9468 91.1789 51.7507 89.045 49.3584C86.9112 46.9538 85.8442 43.5079 85.8442 39.0209C85.8442 36.1948 86.3682 33.722 87.4162 31.6024C88.4642 29.4704 89.9667 27.8404 91.9238 26.7125C93.8935 25.5721 96.1978 25.002 98.8367 25.002C101.526 25.002 104.228 25.6403 106.943 26.917L105.049 31.6024C104.014 31.119 102.972 30.6975 101.924 30.3381C100.876 29.9786 99.8468 29.7989 98.8367 29.7989Z" fill="#020202"/>
<path d="M125.511 29.7989C123.301 29.7989 121.591 30.617 120.378 32.2531C119.166 33.8769 118.56 36.1452 118.56 39.0581C118.56 45.1193 120.877 48.1499 125.511 48.1499C127.456 48.1499 129.81 47.6727 132.575 46.7183V51.5524C130.303 52.482 127.765 52.9468 124.962 52.9468C120.934 52.9468 117.853 51.7507 115.719 49.3584C113.586 46.9538 112.519 43.5079 112.519 39.0209C112.519 36.1948 113.043 33.722 114.091 31.6024C115.139 29.4704 116.641 27.8404 118.598 26.7125C120.568 25.5721 122.872 25.002 125.511 25.002C128.2 25.002 130.903 25.6403 133.617 26.917L131.723 31.6024C130.688 31.119 129.646 30.6975 128.598 30.3381C127.55 29.9786 126.521 29.7989 125.511 29.7989Z" fill="#020202"/>
<path d="M163 52.575H156.333L146.295 38.7978V52.575H140.424V25.3924H146.295V38.5561L156.22 25.3924H162.47L152.375 38.4445L163 52.575Z" fill="#020202"/>
<path d="M89.1067 59.2338C88.4611 59.2338 87.9534 59.4689 87.5836 59.9391C87.2138 60.4093 87.0289 61.0583 87.0289 61.8859C87.0289 62.7522 87.206 63.4076 87.5601 63.852C87.9174 64.2965 88.4329 64.5187 89.1067 64.5187C89.3982 64.5187 89.6803 64.4897 89.9529 64.4317C90.2256 64.3705 90.5092 64.2932 90.8038 64.1998V65.1902C90.2648 65.3995 89.6536 65.5041 88.9704 65.5041C87.9644 65.5041 87.1919 65.1918 86.6528 64.567C86.1138 63.939 85.8442 63.0421 85.8442 61.8763C85.8442 61.142 85.9743 60.4995 86.2344 59.9488C86.4977 59.3981 86.8769 58.9762 87.3721 58.6831C87.8672 58.3901 88.4486 58.2435 89.1161 58.2435C89.8182 58.2435 90.4669 58.3949 91.0624 58.6976L90.6581 59.659C90.4262 59.5462 90.1801 59.448 89.92 59.3643C89.663 59.2773 89.3919 59.2338 89.1067 59.2338Z" fill="#020202"/>
<path d="M94.8512 65.4075H93.7276V59.3353H91.7062V58.345H96.8726V59.3353H94.8512V65.4075Z" fill="#020202"/>
<path d="M102.673 60.4802C102.673 61.2177 102.438 61.7829 101.968 62.1758C101.498 62.5687 100.829 62.7651 99.961 62.7651H99.2464V65.4075H98.1229V58.345H100.102C100.961 58.345 101.603 58.5253 102.029 58.886C102.459 59.2467 102.673 59.7781 102.673 60.4802ZM99.2464 61.7941H99.8435C100.42 61.7941 100.843 61.6911 101.113 61.485C101.382 61.2789 101.517 60.9568 101.517 60.5188C101.517 60.113 101.396 59.8103 101.155 59.6106C100.914 59.411 100.538 59.3111 100.027 59.3111H99.2464V61.7941Z" fill="#020202"/>
<path d="M110.341 61.8666C110.341 63.0163 110.06 63.91 109.499 64.5477C108.941 65.1853 108.15 65.5041 107.125 65.5041C106.088 65.5041 105.29 65.1885 104.732 64.5573C104.178 63.9229 103.9 63.0228 103.9 61.8569C103.9 60.6911 104.179 59.7958 104.737 59.1711C105.298 58.5463 106.097 58.2339 107.135 58.2339C108.156 58.2339 108.946 58.5511 109.504 59.1855C110.062 59.82 110.341 60.7137 110.341 61.8666ZM105.094 61.8666C105.094 62.7361 105.265 63.3963 105.607 63.8472C105.948 64.2949 106.454 64.5187 107.125 64.5187C107.793 64.5187 108.296 64.2965 108.634 63.852C108.976 63.4076 109.147 62.7458 109.147 61.8666C109.147 61.0003 108.977 60.3433 108.639 59.8957C108.304 59.448 107.802 59.2242 107.135 59.2242C106.461 59.2242 105.951 59.448 105.607 59.8957C105.265 60.3433 105.094 61.0003 105.094 61.8666Z" fill="#020202"/>
<path d="M112.009 58.345H113.039V62.0164C113.039 62.3996 113.029 62.7877 113.011 63.1806C112.992 63.5702 112.978 63.8343 112.968 63.9728H113.011L116.522 58.345H117.834V65.4075H116.8V61.7652C116.8 61.208 116.829 60.5317 116.889 59.7362H116.851L113.326 65.4075H112.009V58.345Z" fill="#020202"/>
<path d="M122.201 65.4075H121.077V59.3353H119.056V58.345H124.222V59.3353H122.201V65.4075Z" fill="#020202"/>
<path d="M129.36 65.4075H125.473V58.345H129.36V59.3208H126.596V61.2434H129.186V62.2096H126.596V64.4269H129.36V65.4075Z" fill="#020202"/>
<path d="M136.2 65.4075H135.077V59.3353H133.121C132.873 61.3964 132.674 62.7989 132.524 63.5429C132.377 64.2868 132.168 64.8053 131.899 65.0984C131.629 65.3882 131.272 65.5283 130.827 65.5186C130.598 65.5186 130.38 65.4784 130.173 65.3979V64.4366C130.352 64.5171 130.526 64.5573 130.695 64.5573C130.921 64.5573 131.096 64.4188 131.222 64.1419C131.35 63.8617 131.49 63.245 131.64 62.2917C131.794 61.3384 131.976 60.0229 132.185 58.345H136.2V65.4075Z" fill="#020202"/>
<path d="M143.002 63.282C143.002 63.9744 142.775 64.5026 142.321 64.8665C141.869 65.2272 141.214 65.4075 140.356 65.4075H138.212V58.345H139.336V61.2145H140.309C141.18 61.2145 141.846 61.3932 142.307 61.7507C142.77 62.1049 143.002 62.6154 143.002 63.282ZM139.336 64.4366H140.28C140.785 64.4366 141.172 64.3464 141.442 64.166C141.714 63.9825 141.851 63.6878 141.851 63.282C141.851 62.902 141.721 62.6234 141.46 62.4463C141.2 62.2692 140.765 62.1806 140.154 62.1806H139.336V64.4366Z" fill="#020202"/>
<path d="M149.993 65.4075H148.864V62.2241H145.696V65.4075H144.572V58.345H145.696V61.2338H148.864V58.345H149.993V65.4075Z" fill="#020202"/>
<path d="M156.259 65.4075L155.572 63.4463H152.945L152.272 65.4075H151.088L153.659 58.316H154.881L157.453 65.4075H156.259ZM155.276 62.4511L154.632 60.5285C154.585 60.3997 154.519 60.1968 154.435 59.9198C154.353 59.6429 154.297 59.44 154.266 59.3111C154.181 59.7073 154.057 60.1404 153.894 60.6106L153.274 62.4511H155.276Z" fill="#020202"/>
<path d="M160.725 62.5767L159.023 65.4075H157.739L159.676 62.311C158.799 61.9986 158.36 61.3417 158.36 60.3401C158.36 59.6928 158.578 59.1984 159.013 58.8571C159.449 58.5157 160.09 58.345 160.936 58.345H163V65.4075H161.872V62.5767H160.725ZM161.872 59.3111H160.978C160.505 59.3111 160.142 59.3981 159.888 59.572C159.637 59.7427 159.512 60.0229 159.512 60.4125C159.512 60.7926 159.634 61.0889 159.878 61.3014C160.123 61.514 160.502 61.6202 161.016 61.6202H161.872V59.3111Z" fill="#020202"/>
<path d="M91.4572 77.7742H90.1363L87.3063 74.1946V77.7742H86.1827V70.7117H87.3063V74.1318L90.0893 70.7117H91.3209L88.5473 74.1222L91.4572 77.7742Z" fill="#020202"/>
<path d="M98.6637 74.2333C98.6637 75.383 98.3832 76.2767 97.8222 76.9144C97.2644 77.552 96.473 77.8708 95.4482 77.8708C94.4109 77.8708 93.6133 77.5552 93.0554 76.924C92.5007 76.2896 92.2233 75.3895 92.2233 74.2236C92.2233 73.0578 92.5022 72.1625 93.0601 71.5377C93.6211 70.913 94.4203 70.6006 95.4576 70.6006C96.4793 70.6006 97.2691 70.9178 97.8269 71.5522C98.3848 72.1867 98.6637 73.0804 98.6637 74.2333ZM93.4174 74.2333C93.4174 75.1028 93.5882 75.763 93.9298 76.2139C94.2714 76.6615 94.7775 76.8854 95.4482 76.8854C96.1158 76.8854 96.6188 76.6632 96.9572 76.2187C97.2988 75.7743 97.4696 75.1125 97.4696 74.2333C97.4696 73.367 97.3004 72.71 96.9619 72.2624C96.6266 71.8147 96.1252 71.5909 95.4576 71.5909C94.7838 71.5909 94.2745 71.8147 93.9298 72.2624C93.5882 72.71 93.4174 73.367 93.4174 74.2333Z" fill="#020202"/>
<path d="M103.303 77.7742L101.31 71.8759H101.273C101.326 72.7519 101.352 73.5731 101.352 74.3396V77.7742H100.332V70.7117H101.917L103.825 76.3298H103.853L105.818 70.7117H107.407V77.7742H106.326V74.2816C106.326 73.9306 106.334 73.4733 106.35 72.9097C106.368 72.3461 106.384 72.0047 106.397 71.8856H106.359L104.295 77.7742H103.303Z" fill="#020202"/>
<path d="M114.694 77.7742H113.566V71.702H110.533V77.7742H109.41V70.7117H114.694V77.7742Z" fill="#020202"/>
<path d="M120.965 77.7742L120.278 75.8129H117.651L116.978 77.7742H115.794L118.365 70.6827H119.587L122.159 77.7742H120.965ZM119.982 74.8178L119.338 72.8952C119.291 72.7664 119.225 72.5635 119.141 72.2865C119.059 72.0095 119.003 71.8067 118.972 71.6778C118.887 72.074 118.763 72.5071 118.6 72.9773L117.98 74.8178H119.982Z" fill="#020202"/>
<path d="M128.679 77.7742H127.551V74.5908H124.382V77.7742H123.259V70.7117H124.382V73.6005H127.551V70.7117H128.679V77.7742Z" fill="#020202"/>
<path d="M130.681 70.7117H131.711V74.383C131.711 74.7663 131.701 75.1544 131.683 75.5473C131.664 75.9369 131.65 76.201 131.64 76.3395H131.683L135.194 70.7117H136.506V77.7742H135.472V74.1318C135.472 73.5747 135.501 72.8984 135.561 72.1029H135.523L131.998 77.7742H130.681V70.7117Z" fill="#020202"/>
<path d="M140.671 74.9434L138.969 77.7742H137.686L139.622 74.6777C138.745 74.3653 138.306 73.7084 138.306 72.7068C138.306 72.0595 138.524 71.5651 138.96 71.2237C139.395 70.8824 140.036 70.7117 140.882 70.7117H142.946V77.7742H141.818V74.9434H140.671ZM141.818 71.6778H140.925C140.451 71.6778 140.088 71.7648 139.834 71.9387C139.583 72.1094 139.458 72.3896 139.458 72.7792C139.458 73.1593 139.58 73.4555 139.825 73.6681C140.069 73.8806 140.448 73.9869 140.962 73.9869H141.818V71.6778Z" fill="#020202"/>
<path fill-rule="evenodd" clip-rule="evenodd" d="M37.6578 29.9646V0L70.6083 17.5553V78H50.2103V32.4017L43.934 34.4986L37.6578 36.5955L31.3815 38.6924L25.1052 40.7893L18.8289 42.8862V59.1279H25.1052V45.8917L31.3815 43.7646V65.4186H12.5526V38.3522L25.1052 34.1584V26.8717L6.27629 33.0451V71.7093H37.6578V41.6375L43.934 39.5104V78H0V28.4842L31.3815 18.1952V32.0615L37.6578 29.9646ZM43.934 10.4681V27.8677L56.4866 23.6739V71.7093H64.332V21.3356L43.934 10.4681Z" fill="#087D3F"/>
</svg>
