<svg width="163" height="80" viewBox="0 0 163 80" fill="none" xmlns="http://www.w3.org/2000/svg">
<rect width="163" height="80" fill="#087D3F"/>
<path fill-rule="evenodd" clip-rule="evenodd" d="M94.4093 34.722C93.1492 34.722 92.1735 35.1862 91.4823 36.1146C90.7911 37.036 90.4454 38.3232 90.4454 39.976C90.4454 43.4155 91.7667 45.1352 94.4093 45.1352C95.5182 45.1352 96.8611 44.8644 98.438 44.3228V47.0659C97.1419 47.5934 95.6946 47.8571 94.0961 47.8571C91.7991 47.8571 90.0422 47.1784 88.8253 45.8209C87.6084 44.4564 87 42.5011 87 39.9549C87 38.3513 87.2988 36.9481 87.8965 35.7454C88.4941 34.5356 89.351 33.6107 90.467 32.9706C91.5903 32.3235 92.9044 32 94.4093 32C95.943 32 97.4839 32.3622 99.032 33.0867L97.9519 35.7454C97.3615 35.4711 96.7675 35.2319 96.1698 35.0279C95.5722 34.824 94.9853 34.722 94.4093 34.722ZM109.621 34.722C108.361 34.722 107.385 35.1862 106.694 36.1146C106.003 37.036 105.657 38.3232 105.657 39.976C105.657 43.4155 106.978 45.1352 109.621 45.1352C110.73 45.1352 112.073 44.8644 113.65 44.3228V47.0659C112.354 47.5934 110.906 47.8571 109.308 47.8571C107.011 47.8571 105.254 47.1784 104.037 45.8209C102.82 44.4564 102.212 42.5011 102.212 39.9549C102.212 38.3513 102.511 36.9481 103.108 35.7454C103.706 34.5356 104.563 33.6107 105.679 32.9706C106.802 32.3235 108.116 32 109.621 32C111.155 32 112.696 32.3622 114.244 33.0867L113.164 35.7454C112.573 35.4711 111.979 35.2319 111.382 35.0279C110.784 34.824 110.197 34.722 109.621 34.722ZM127.198 47.6461H131L124.941 39.6279L130.698 32.2216H127.133L121.474 39.6912V32.2216H118.126V47.6461H121.474V39.8283L127.198 47.6461ZM100.49 54.4399C100.81 54.078 100.97 53.5709 100.97 52.9185C100.97 52.2643 100.811 51.7572 100.493 51.3972C100.174 51.0372 99.724 50.8571 99.1414 50.8571C98.5498 50.8571 98.094 51.0344 97.7741 51.3889C97.456 51.7435 97.2969 52.2515 97.2969 52.913C97.2969 53.5746 97.4551 54.0853 97.7714 54.4453C98.0896 54.8035 98.5444 54.9826 99.136 54.9826C99.7204 54.9826 100.172 54.8017 100.49 54.4399ZM98.2701 54.0424C98.0753 53.7865 97.9779 53.4119 97.9779 52.9185C97.9779 52.4269 98.0753 52.0541 98.2701 51.8001C98.4667 51.5461 98.7571 51.4191 99.1414 51.4191C99.522 51.4191 99.808 51.5461 99.9992 51.8001C100.192 52.0541 100.289 52.4269 100.289 52.9185C100.289 53.4174 100.191 53.7929 99.9966 54.0451C99.8035 54.2973 99.5167 54.4234 99.136 54.4234C98.7535 54.4234 98.4649 54.2964 98.2701 54.0424ZM87.9919 51.8248C88.2028 51.558 88.4924 51.4246 88.8605 51.4246C89.0232 51.4246 89.1778 51.4492 89.3243 51.4986C89.4727 51.5461 89.613 51.6018 89.7452 51.6658L89.9758 51.1203C89.6362 50.9485 89.2662 50.8626 88.8659 50.8626C88.4852 50.8626 88.1537 50.9458 87.8713 51.1121C87.5889 51.2784 87.3726 51.5178 87.2225 51.8303C87.0742 52.1428 87 52.5073 87 52.924C87 53.5855 87.1537 54.0945 87.4611 54.4508C87.7685 54.8053 88.2091 54.9826 88.7828 54.9826C89.1724 54.9826 89.5209 54.9232 89.8283 54.8044V54.2425C89.6603 54.2955 89.4986 54.3393 89.3431 54.3741C89.1876 54.407 89.0267 54.4234 88.8605 54.4234C88.4763 54.4234 88.1823 54.2973 87.9785 54.0451C87.7766 53.7929 87.6756 53.4211 87.6756 52.9295C87.6756 52.4598 87.781 52.0916 87.9919 51.8248ZM91.4957 54.9278H92.1364V51.4821H93.2892V50.9202H90.3429V51.4821H91.4957V54.9278ZM96.5973 52.1318C96.5973 52.5503 96.4633 52.871 96.1952 53.0939C95.9271 53.3169 95.5455 53.4284 95.0504 53.4284H94.643V54.9278H94.0022V50.9202H95.1309C95.6206 50.9202 95.987 51.0225 96.23 51.2272C96.4749 51.4319 96.5973 51.7334 96.5973 52.1318ZM94.643 52.8774H94.9834C95.3123 52.8774 95.5536 52.8189 95.7073 52.702C95.861 52.585 95.9378 52.4023 95.9378 52.1537C95.9378 51.9235 95.869 51.7517 95.7314 51.6384C95.5938 51.5251 95.3793 51.4684 95.088 51.4684H94.643V52.8774ZM101.921 50.9202H102.508V53.0035C102.508 53.2209 102.503 53.4412 102.492 53.6641C102.482 53.8852 102.474 54.0351 102.468 54.1137H102.492L104.495 50.9202H105.243V54.9278H104.653V52.8609C104.653 52.5448 104.67 52.161 104.704 51.7097H104.683L102.672 54.9278H101.921V50.9202ZM107.093 54.9278H107.733V51.4821H108.886V50.9202H105.94V51.4821H107.093V54.9278ZM111.816 54.9278H109.599V50.9202H111.816V51.4739H110.24V52.5649H111.717V53.1131H110.24V54.3713H111.816V54.9278ZM115.076 54.9278H115.717V50.9202H113.427C113.308 51.8723 113.204 52.6188 113.116 53.1597C113.031 53.7007 112.951 54.0506 112.878 54.2096C112.806 54.3668 112.706 54.4453 112.577 54.4453C112.481 54.4453 112.382 54.4225 112.28 54.3768V54.9223C112.398 54.968 112.522 54.9908 112.653 54.9908C112.906 54.9963 113.11 54.9168 113.264 54.7523C113.417 54.5861 113.536 54.2918 113.62 53.8697C113.706 53.4476 113.82 52.6517 113.961 51.4821H115.076V54.9278ZM119.596 53.7217C119.596 54.1146 119.466 54.4143 119.207 54.6208C118.95 54.8254 118.576 54.9278 118.087 54.9278H116.864V50.9202H117.505V52.5484H118.06C118.557 52.5484 118.936 52.6499 119.199 52.8527C119.464 53.0537 119.596 53.3434 119.596 53.7217ZM117.505 54.3768H118.044C118.331 54.3768 118.552 54.3256 118.706 54.2233C118.861 54.1191 118.939 53.9519 118.939 53.7217C118.939 53.506 118.865 53.348 118.717 53.2474C118.568 53.1469 118.32 53.0967 117.971 53.0967H117.505V54.3768ZM122.939 54.9278H123.582V50.9202H122.939V52.5594H121.132V50.9202H120.491V54.9278H121.132V53.1214H122.939V54.9278ZM126.764 53.8149H125.266L124.882 54.9278H124.207L125.673 50.9037H126.37L127.837 54.9278H127.156L126.764 53.8149ZM126.595 53.2502L126.228 52.1592C126.201 52.0861 126.164 51.971 126.116 51.8138C126.069 51.6567 126.037 51.5415 126.019 51.4684C125.971 51.6932 125.9 51.939 125.807 52.2058L125.453 53.2502H126.595ZM128.732 54.9278L129.702 53.3215H130.357V54.9278H131V50.9202H129.823C129.341 50.9202 128.975 51.017 128.727 51.2108C128.478 51.4045 128.354 51.685 128.354 52.0523C128.354 52.6206 128.604 52.9934 129.105 53.1707L128 54.9278H128.732ZM129.847 51.4684H130.357V52.7787H129.869C129.576 52.7787 129.359 52.7184 129.22 52.5978C129.08 52.4772 129.011 52.3091 129.011 52.0934C129.011 51.8723 129.082 51.7133 129.225 51.6165C129.37 51.5178 129.577 51.4684 129.847 51.4684ZM90.201 61.9452H89.4476L87.8338 59.914V61.9452H87.193V57.9376H87.8338V59.8783L89.4208 57.9376H90.1232L88.5415 59.8729L90.201 61.9452ZM93.8308 61.4573C94.1507 61.0954 94.3106 60.5883 94.3106 59.9359C94.3106 59.2817 94.1516 58.7746 93.8334 58.4146C93.5153 58.0545 93.0649 57.8745 92.4823 57.8745C91.8907 57.8745 91.435 58.0518 91.115 58.4063C90.7969 58.7609 90.6378 59.2689 90.6378 59.9304C90.6378 60.592 90.796 61.1027 91.1124 61.4627C91.4305 61.8209 91.8853 62 92.4769 62C93.0613 62 93.5126 61.8191 93.8308 61.4573ZM91.611 61.0598C91.4162 60.8039 91.3188 60.4293 91.3188 59.9359C91.3188 59.4443 91.4162 59.0715 91.611 58.8175C91.8076 58.5635 92.098 58.4365 92.4823 58.4365C92.863 58.4365 93.1489 58.5635 93.3402 58.8175C93.5332 59.0715 93.6297 59.4443 93.6297 59.9359C93.6297 60.4348 93.5323 60.8103 93.3375 61.0625C93.1445 61.3147 92.8576 61.4408 92.4769 61.4408C92.0944 61.4408 91.8058 61.3138 91.611 61.0598ZM96.9566 61.9452L95.8199 58.5982H95.7984C95.8288 59.0953 95.844 59.5613 95.844 59.9962V61.9452H95.2622V57.9376H96.1657L97.2541 61.1256H97.2702L98.3908 57.9376H99.297V61.9452H98.6804V59.9633C98.6804 59.7641 98.6848 59.5046 98.6938 59.1848C98.7045 58.865 98.7134 58.6713 98.7206 58.6037H98.6991L97.5222 61.9452H96.9566ZM102.809 61.9452H103.452V57.9376H100.439V61.9452H101.08V58.4995H102.809V61.9452ZM107.028 61.9452L106.637 60.8323H105.138L104.755 61.9452H104.079L105.546 57.9211H106.243L107.709 61.9452H107.028ZM106.468 60.2676L106.101 59.1766C106.074 59.1035 106.036 58.9884 105.988 58.8312C105.942 58.6741 105.91 58.5589 105.892 58.4858C105.843 58.7106 105.773 58.9564 105.68 59.2232L105.326 60.2676H106.468ZM110.784 61.9452H111.428V57.9376H110.784V59.5768H108.977V57.9376H108.337V61.9452H108.977V60.1388H110.784V61.9452ZM112.57 57.9376H113.157V60.0209C113.157 60.2383 113.151 60.4586 113.141 60.6815C113.13 60.9026 113.122 61.0525 113.116 61.1311H113.141L115.143 57.9376H115.891V61.9452H115.301V59.8783C115.301 59.5622 115.318 59.1784 115.352 58.727H115.331L113.32 61.9452H112.57V57.9376ZM117.296 61.9452L118.266 60.3389H118.92V61.9452H119.564V57.9376H118.387C117.904 57.9376 117.539 58.0344 117.29 58.2282C117.042 58.4219 116.918 58.7024 116.918 59.0697C116.918 59.638 117.168 60.0108 117.668 60.1881L116.564 61.9452H117.296ZM118.411 58.4858H118.92V59.7961H118.432C118.139 59.7961 117.923 59.7358 117.784 59.6152C117.644 59.4946 117.575 59.3265 117.575 59.1108C117.575 58.8897 117.646 58.7307 117.789 58.6338C117.934 58.5352 118.141 58.4858 118.411 58.4858Z" fill="white"/>
<path fill-rule="evenodd" clip-rule="evenodd" d="M56 36.7013V18L77 28.9565V62H64V38.2224L60 39.5311L56 40.8398L52 42.1485L48 43.4572L44 44.7659V50.2217H48V46.6416L52 45.3141V54.1478H40V41.9361L48 39.3187V34.771L36 38.6239V58.0739H56V43.9865L60 42.659V62H32V35.7774L52 29.3559V38.01L56 36.7013ZM60 24.5333V35.3926L68 32.7752V58.0739H73V31.3159L60 24.5333Z" fill="white"/>
</svg>
