<svg width="110" height="79" viewBox="0 0 110 79" fill="none" xmlns="http://www.w3.org/2000/svg">
<path d="M110 30.3232C110 27.9293 109.599 25.1364 109.599 21.9444C109.197 18.7525 108.796 15.5606 108.394 12.7677C107.591 9.57574 106.387 7.18183 103.978 5.18688C101.971 3.19193 99.1606 1.99492 96.3504 1.59593C87.1168 0.398965 73.4672 0 55.0001 0C36.5329 0 22.4817 0.398965 13.6496 1.59593C10.8394 1.99492 8.0292 3.19193 6.0219 5.18688C4.0146 7.18183 2.40874 9.57574 1.60582 12.7677C0.802895 15.5606 0.401484 18.3535 0.401484 21.9444C2.44972e-05 25.1364 0 27.9293 0 30.3232C0 32.7171 0 35.5101 0 39.5C0 43.4899 0 46.6818 0 48.6768C0 51.0707 0.401484 53.8636 0.401484 57.0556C0.802944 60.2475 1.20436 63.4394 1.60582 66.2323C2.40874 69.4242 3.61314 71.8182 6.0219 73.8131C8.0292 75.8081 10.8394 77.005 13.6496 77.404C22.8832 78.601 36.5329 79 55.0001 79C73.4672 79 87.5183 78.601 96.3504 77.404C99.1606 77.005 101.971 75.8081 103.978 73.8131C105.985 71.8182 107.591 69.4242 108.394 66.2323C109.197 63.4394 109.599 60.6465 109.599 57.0556C110 53.8636 110 51.0707 110 48.6768C110 46.2828 110 43.4899 110 39.5C110 35.5101 110 32.3181 110 30.3232ZM76.2774 42.6919L44.5621 62.2424C44.1606 62.6414 43.3577 63.0404 42.5548 63.0404C41.7519 63.0404 41.3504 63.0404 40.5475 62.6414C39.3431 61.8434 38.5402 60.6465 38.5402 59.0505V19.5505C38.5402 17.9545 39.3431 16.7576 40.5475 15.9596C41.7519 15.1616 43.3577 15.1616 44.5621 15.9596L76.2774 35.5101C77.4818 36.3081 78.2847 37.505 78.2847 38.702C78.2847 39.899 77.4818 41.8939 76.2774 42.6919Z" fill="#DE0000"/>
</svg>
