<svg width="26" height="26" viewBox="0 0 26 26" fill="none" xmlns="http://www.w3.org/2000/svg">
<path fill-rule="evenodd" clip-rule="evenodd" d="M13 26C20.1797 26 26 20.1797 26 13C26 5.8203 20.1797 0 13 0C5.8203 0 0 5.8203 0 13C0 20.1797 5.8203 26 13 26ZM21.5394 10.5529C21.6772 10.5529 21.8085 10.6119 21.8966 10.7131C21.9841 10.8147 22.0178 10.9471 21.9911 11.0743L21.7311 12.2582C21.6878 12.4605 21.4988 12.6047 21.2799 12.6047H20.7264C21.2569 13.1604 21.5108 13.8711 21.508 14.5804C21.5039 15.3658 21.1873 16.1525 20.5245 16.7242V18.3488C20.5245 18.7078 20.2139 19 19.8332 19H18.2174C17.8357 19 17.526 18.7078 17.526 18.3488V17.6828H8.47386V18.3488C8.47386 18.7078 8.16414 19 7.78253 19H6.16668C5.78507 19 5.47536 18.7078 5.47536 18.3488V16.6917C5.47186 16.6886 5.46822 16.6861 5.46452 16.6835C5.46141 16.6813 5.45824 16.6791 5.45508 16.6765C4.83059 16.1347 4.48907 15.3688 4.4923 14.5214C4.49553 13.8355 4.73841 13.1499 5.23939 12.6055H4.72044C4.50244 12.6055 4.31348 12.4614 4.26923 12.2595L4.00976 11.0752C3.98118 10.9471 4.01621 10.8138 4.10378 10.7131C4.19088 10.6119 4.32177 10.5529 4.46096 10.5529H6.21277C6.64738 9.48058 7.20828 8.42692 7.8489 8.02924C10.0634 6.65692 15.9374 6.65692 18.1519 8.02924C18.7921 8.42648 19.3553 9.47884 19.7876 10.5529H21.5394ZM17.391 9.11677C15.6267 8.02229 10.3731 8.02229 8.60797 9.11677C8.26508 9.3295 7.82401 10.1856 7.42074 11.2341H18.5791C18.175 10.1852 17.7339 9.32863 17.391 9.11677ZM7.90052 13.4039C7.14974 13.4039 6.54046 13.977 6.54046 14.6846C6.54046 15.3923 7.14974 15.9658 7.90052 15.9658C8.65222 15.9658 9.26058 15.3923 9.26058 14.6846C9.26058 13.977 8.65222 13.4039 7.90052 13.4039ZM16.7573 14.6846C16.7573 15.3923 17.3666 15.9658 18.1173 15.9658C18.8681 15.9658 19.4774 15.3923 19.4774 14.6846C19.4774 13.977 18.869 13.4039 18.1173 13.4039C17.3666 13.4039 16.7573 13.977 16.7573 14.6846Z" fill="white"/>
</svg>
