<svg width="26" height="26" viewBox="0 0 26 26" fill="none" xmlns="http://www.w3.org/2000/svg">
<path fill-rule="evenodd" clip-rule="evenodd" d="M13 26C20.1797 26 26 20.1797 26 13C26 5.8203 20.1797 0 13 0C5.8203 0 0 5.8203 0 13C0 20.1797 5.8203 26 13 26ZM13.3093 7.84529C14.3146 7.84529 15.1323 6.98281 15.1323 5.92255C15.1323 4.86247 14.3146 4 13.3093 4C12.3043 4 11.4867 4.86247 11.4867 5.92255C11.4866 6.98281 12.3043 7.84529 13.3093 7.84529ZM16.854 13.5681L15.145 11.5796C15.0385 11.4558 14.9407 11.2007 14.9358 11.0335L14.8729 8.97024V8.91046C14.8729 8.59253 14.6276 8.33381 14.3262 8.33381H12.6532H11.9884C11.719 8.33381 11.4185 8.53506 11.3039 8.79205L9.05172 13.8377C8.98939 13.9777 8.9832 14.1339 9.03422 14.2783C9.08525 14.4225 9.18731 14.5362 9.32125 14.5985L9.65312 14.7529C9.72383 14.7857 9.79928 14.8025 9.87746 14.8025C10.092 14.8025 10.2917 14.6739 10.3866 14.4749L11.4416 12.2612V14.4863C11.4396 14.4922 11.4372 14.4978 11.4348 14.5035C11.4319 14.5102 11.429 14.5169 11.4269 14.5239L9.64401 20.4131C9.56983 20.6583 9.59243 20.9165 9.70779 21.1398C9.82315 21.3632 10.0163 21.5231 10.2521 21.5902L10.3713 21.6242C10.4493 21.6465 10.5302 21.6579 10.6115 21.6579C11.0218 21.6579 11.3944 21.3732 11.518 20.9653L13.1839 15.4625L13.7747 16.9889C13.9189 17.3612 14.0745 18.0132 14.1146 18.4131L14.3972 21.2234C14.4426 21.6734 14.7799 22 15.1995 22C15.2682 22 15.338 21.9912 15.4067 21.9737L15.5268 21.9429C16.005 21.8209 16.3429 21.3026 16.28 20.7881L15.8614 17.3612C15.8082 16.9259 15.6301 16.2441 15.4644 15.8414L14.8991 14.4682C14.8947 14.4574 14.8892 14.4472 14.8836 14.437C14.88 14.4303 14.8764 14.4237 14.8731 14.4169V13.4864L15.8918 14.6081C15.9931 14.7198 16.1287 14.7813 16.2734 14.7813C16.4198 14.7813 16.5564 14.7187 16.6581 14.6049L16.8466 14.3938C17.0481 14.168 17.0516 13.7977 16.854 13.5681Z" fill="white"/>
</svg>
